<svg width="1518" height="576" viewBox="0 0 1518 576" fill="none" xmlns="http://www.w3.org/2000/svg">
<g filter="url(#filter0_di_35_321)">
<path d="M666.339 178.486C669.528 178.486 672.113 181.067 672.113 184.251V396.865C672.113 456.973 628.811 492 574.253 492C514.116 492 482.577 460.222 480.412 408.692C480.278 405.51 482.877 402.92 486.066 402.92H526.911C530.099 402.92 532.646 405.515 532.959 408.684C535.103 430.364 549.735 443.568 576.853 443.568C597.203 443.567 615.823 425.837 615.823 397.729V377.795C615.823 374.634 609.998 373.031 607.811 375.316C596.763 386.863 578.379 393.405 558.233 393.405C513.634 393.405 480.293 363.136 480.292 316.434V314.559C480.292 311.374 482.878 308.793 486.066 308.793H534.73C535.762 308.793 536.603 309.621 536.617 310.651C537.35 335.419 549.452 347.999 572.523 347.999C598.069 347.999 615.823 331.134 615.823 308.216V184.251C615.823 181.067 618.408 178.486 621.596 178.486H666.339Z" fill="url(#paint0_radial_35_321)"/>
<path d="M1296.7 178.486C1299.89 178.486 1302.47 181.067 1302.47 184.251V308.216C1302.47 334.594 1314.59 347.999 1338.41 347.999C1363.96 347.999 1381.71 331.134 1381.71 308.216V184.251C1381.71 181.067 1384.3 178.486 1387.48 178.486H1432.23C1435.42 178.486 1438 181.067 1438 184.251V396.865C1438 456.973 1394.7 492 1340.14 492C1280 492 1248.46 460.222 1246.3 408.692C1246.16 405.511 1248.76 402.921 1251.95 402.92H1292.8C1295.99 402.92 1298.53 405.515 1298.85 408.684C1300.99 430.363 1315.62 443.568 1342.74 443.568C1363.09 443.568 1381.71 425.837 1381.71 397.729V377.797C1381.71 374.635 1375.89 373.031 1373.7 375.316C1362.65 386.863 1344.27 393.405 1324.12 393.405C1279.52 393.405 1246.18 363.136 1246.18 316.434V184.251C1246.18 181.067 1248.76 178.486 1251.95 178.486H1296.7Z" fill="url(#paint1_radial_35_321)"/>
<path fill-rule="evenodd" clip-rule="evenodd" d="M290.728 176.18C293.916 176.18 296.501 178.762 296.501 181.946V385.19C296.501 388.374 293.916 390.955 290.728 390.955H249.881C246.692 390.955 244.108 388.374 244.108 385.19V381.966C244.108 379.715 241.632 378.321 239.657 379.403C223.847 388.065 206.711 392.397 188.251 392.397C168.621 392.397 150.435 387.64 133.693 378.126C117.238 368.325 104.104 355.208 94.2889 338.775C84.7628 322.055 80 303.892 80 284.289C80 264.685 84.7628 246.667 94.2889 230.234C104.104 213.514 117.238 200.397 133.693 190.883C150.435 181.081 168.621 176.18 188.251 176.18C206.711 176.18 223.847 180.511 239.657 189.173C241.632 190.256 244.108 188.862 244.108 186.612V181.946C244.108 178.762 246.692 176.18 249.881 176.18H290.728ZM188.251 228.504C178.147 228.504 168.765 231.1 160.105 236.289C151.734 241.19 144.95 247.964 139.754 256.613C134.847 264.973 132.393 274.199 132.393 284.289C132.393 294.379 134.847 303.748 139.754 312.397C144.95 320.757 151.734 327.532 160.105 332.721C168.765 337.622 178.147 340.072 188.251 340.072C198.354 340.072 207.592 337.622 215.963 332.721C224.623 327.532 231.407 320.757 236.314 312.397C241.51 303.748 244.108 294.379 244.108 284.289C244.108 274.199 241.51 264.973 236.314 256.613C231.407 247.965 224.623 241.19 215.963 236.289C207.592 231.1 198.354 228.505 188.251 228.504Z" fill="url(#paint2_radial_35_321)"/>
<path fill-rule="evenodd" clip-rule="evenodd" d="M1208.7 176.18C1211.88 176.18 1214.47 178.762 1214.47 181.946V385.19C1214.47 388.374 1211.88 390.955 1208.7 390.955H1167.85C1164.66 390.955 1162.07 388.374 1162.07 385.19V381.966C1162.07 379.716 1159.6 378.322 1157.63 379.404C1141.82 388.066 1124.68 392.397 1106.22 392.397C1086.59 392.397 1068.4 387.639 1051.66 378.126C1035.21 368.324 1022.07 355.208 1012.26 338.776C1002.73 322.055 997.967 303.892 997.967 284.289C997.967 264.685 1002.73 246.667 1012.26 230.234C1022.07 213.514 1035.2 200.395 1051.66 190.882C1068.4 181.08 1086.59 176.18 1106.22 176.18C1124.68 176.18 1141.82 180.511 1157.63 189.173C1159.6 190.255 1162.07 188.861 1162.07 186.611V181.946C1162.07 178.762 1164.66 176.181 1167.85 176.18H1208.7ZM1106.22 228.506C1096.12 228.506 1086.73 231.098 1078.07 236.287C1069.7 241.188 1062.92 247.965 1057.72 256.614C1052.82 264.974 1050.36 274.199 1050.36 284.289C1050.36 294.379 1052.81 303.748 1057.72 312.397C1062.92 320.757 1069.7 327.531 1078.07 332.72C1086.73 337.621 1096.11 340.071 1106.22 340.071C1116.32 340.071 1125.56 337.621 1133.93 332.72C1142.59 327.531 1149.38 320.757 1154.28 312.397C1159.48 303.748 1162.07 294.378 1162.07 284.289C1162.07 274.199 1159.48 264.974 1154.28 256.614C1149.38 247.965 1142.59 241.188 1133.93 236.287C1125.56 231.099 1116.32 228.506 1106.22 228.506Z" fill="url(#paint3_radial_35_321)"/>
<path d="M410.522 76C413.71 76 416.295 78.5813 416.295 81.7656V385.477C416.295 388.661 413.71 391.242 410.522 391.243H365.778C362.589 391.242 360.005 388.661 360.005 385.477L360.005 170.414C360.005 167.23 357.421 164.649 354.232 164.649H309.779C306.59 164.649 304.006 162.067 304.005 158.883V131.496C304.005 128.311 306.612 125.74 309.799 125.65C351.971 124.448 365.577 109.729 369.757 81.1674C370.185 78.2449 372.646 76.0002 375.603 76H410.522Z" fill="url(#paint4_radial_35_321)"/>
<path d="M745.398 178.486C748.04 178.486 750.345 180.278 750.994 182.836L781.504 303.199C782.254 306.152 786.482 306.076 787.124 303.097L812.995 183.039C813.567 180.383 815.918 178.486 818.638 178.486H866.596C869.257 178.486 871.575 180.303 872.206 182.886L901.63 303.489C902.348 306.432 906.543 306.419 907.243 303.472L935.893 182.92C936.51 180.321 938.836 178.486 941.511 178.486H987.312C991.149 178.487 993.916 182.156 992.86 185.84L935.115 387.065C934.405 389.537 932.143 391.242 929.567 391.243H880.736C878.133 391.242 875.851 389.502 875.166 386.994L845.341 277.766C844.567 274.935 840.544 274.935 839.77 277.766L809.942 386.994C809.257 389.502 806.975 391.242 804.372 391.243H755.552C752.972 391.243 750.705 389.534 749.998 387.057L692.662 185.831C691.613 182.149 694.383 178.486 698.216 178.486H745.398Z" fill="url(#paint5_radial_35_321)"/>
<path d="M530.007 76C533.187 76 535.769 78.5692 535.78 81.7455L536.5 285.71C536.511 288.902 533.923 291.496 530.727 291.496H485.926C482.75 291.495 480.171 288.934 480.153 285.763L479.502 170.382C479.484 167.21 476.905 164.649 473.729 164.649H440.79C437.602 164.649 435.017 162.067 435.017 158.883V131.496C435.017 128.311 437.625 125.744 440.812 125.626C468.739 124.266 485.366 109.553 489.245 81.1704C489.645 78.2439 492.111 76 495.068 76H530.007Z" fill="url(#paint6_radial_35_321)"/>
</g>
<defs>
<filter id="filter0_di_35_321" x="0" y="0" width="1518" height="576" filterUnits="userSpaceOnUse" color-interpolation-filters="sRGB">
<feFlood flood-opacity="0" result="BackgroundImageFix"/>
<feColorMatrix in="SourceAlpha" type="matrix" values="0 0 0 0 0 0 0 0 0 0 0 0 0 0 0 0 0 0 127 0" result="hardAlpha"/>
<feOffset dy="4"/>
<feGaussianBlur stdDeviation="40"/>
<feComposite in2="hardAlpha" operator="out"/>
<feColorMatrix type="matrix" values="0 0 0 0 0.823529 0 0 0 0 0.847059 0 0 0 0 0.92549 0 0 0 0.3 0"/>
<feBlend mode="normal" in2="BackgroundImageFix" result="effect1_dropShadow_35_321"/>
<feBlend mode="normal" in="SourceGraphic" in2="effect1_dropShadow_35_321" result="shape"/>
<feColorMatrix in="SourceAlpha" type="matrix" values="0 0 0 0 0 0 0 0 0 0 0 0 0 0 0 0 0 0 127 0" result="hardAlpha"/>
<feOffset dx="2" dy="2"/>
<feGaussianBlur stdDeviation="1.5"/>
<feComposite in2="hardAlpha" operator="arithmetic" k2="-1" k3="1"/>
<feColorMatrix type="matrix" values="0 0 0 0 1 0 0 0 0 1 0 0 0 0 1 0 0 0 0.8 0"/>
<feBlend mode="normal" in2="shape" result="effect2_innerShadow_35_321"/>
</filter>
<radialGradient id="paint0_radial_35_321" cx="0" cy="0" r="1" gradientTransform="matrix(621.117 44.78 -22.2632 309.303 462.004 272.454)" gradientUnits="userSpaceOnUse">
<stop stop-color="white"/>
<stop offset="1" stop-color="#E8EEFF"/>
</radialGradient>
<radialGradient id="paint1_radial_35_321" cx="0" cy="0" r="1" gradientTransform="matrix(621.117 44.78 -22.2632 309.303 462.004 272.454)" gradientUnits="userSpaceOnUse">
<stop stop-color="white"/>
<stop offset="1" stop-color="#E8EEFF"/>
</radialGradient>
<radialGradient id="paint2_radial_35_321" cx="0" cy="0" r="1" gradientTransform="matrix(621.117 44.78 -22.2632 309.303 462.004 272.454)" gradientUnits="userSpaceOnUse">
<stop stop-color="white"/>
<stop offset="1" stop-color="#E8EEFF"/>
</radialGradient>
<radialGradient id="paint3_radial_35_321" cx="0" cy="0" r="1" gradientTransform="matrix(621.117 44.78 -22.2632 309.303 462.004 272.454)" gradientUnits="userSpaceOnUse">
<stop stop-color="white"/>
<stop offset="1" stop-color="#E8EEFF"/>
</radialGradient>
<radialGradient id="paint4_radial_35_321" cx="0" cy="0" r="1" gradientTransform="matrix(621.117 44.78 -22.2632 309.303 462.004 272.454)" gradientUnits="userSpaceOnUse">
<stop stop-color="white"/>
<stop offset="1" stop-color="#E8EEFF"/>
</radialGradient>
<radialGradient id="paint5_radial_35_321" cx="0" cy="0" r="1" gradientTransform="matrix(621.117 44.78 -22.2632 309.303 462.004 272.454)" gradientUnits="userSpaceOnUse">
<stop stop-color="white"/>
<stop offset="1" stop-color="#E8EEFF"/>
</radialGradient>
<radialGradient id="paint6_radial_35_321" cx="0" cy="0" r="1" gradientTransform="matrix(621.117 44.78 -22.2632 309.303 462.004 272.454)" gradientUnits="userSpaceOnUse">
<stop stop-color="white"/>
<stop offset="1" stop-color="#E8EEFF"/>
</radialGradient>
</defs>
</svg>
