<svg preserveAspectRatio="none" width="100%" height="100%" overflow="visible" style="display: block;" viewBox="0 0 282.088 121.334" fill="none" xmlns="http://www.w3.org/2000/svg">
<g id="Group 1707481123">
<path id="Union" d="M196.568 121.334H174.509V38.6055H196.568V121.334ZM117.182 101.334H162.572V121.255H94.4912V0.000976562H117.182V101.334ZM282.088 19.9209H236.391V51.9668H272.215V70.501H236.391V121.255H213.7V0.000976562H282.088V19.9209ZM81.2363 19.9209H22.6904V50.7539H76.04V68.5957H22.6904V101.334H82.9688V121.254H0V15.6514C0 7.00757 7.00702 0 15.6504 0H81.2363V19.9209ZM185.541 0.000976562C192.418 0.00112552 197.993 5.57633 197.993 12.4541C197.993 19.3318 192.418 24.9071 185.541 24.9072C178.664 24.9072 173.088 19.3319 173.088 12.4541C173.088 5.57624 178.663 0.000976562 185.541 0.000976562Z" fill="url(#paint0_linear_58_10888)"/>
</g>
<defs>
<linearGradient id="paint0_linear_58_10888" x1="479.528" y1="8.41626e-07" x2="476.421" y2="134.673" gradientUnits="userSpaceOnUse">
<stop stop-color="#F4F4F4"/>
<stop offset="1" stop-color="#58596E"/>
</linearGradient>
</defs>
</svg>
